<!DOCTYPE svg PUBLIC "-//W3C//DTD SVG 20010904//EN" "http://www.w3.org/TR/2001/REC-SVG-20010904/DTD/svg10.dtd">
<svg version="1.0" xmlns="http://www.w3.org/2000/svg" width="540px" height="960px" viewBox="0 0 5400 9600" preserveAspectRatio="xMidYMid meet">
<g id="layer101" fill="#020202" stroke="none">
 <path d="M0 4800 l0 -4800 2700 0 2700 0 0 4800 0 4800 -2700 0 -2700 0 0 -4800z"/>
 </g>
<g id="layer102" fill="#f5f5f5" stroke="none">
 <path d="M2977 8624 c-12 -13 -8 -41 9 -55 12 -9 15 -27 12 -68 -3 -50 -1 -56 18 -59 24 -3 44 33 44 82 0 54 -58 124 -83 100z"/>
 <path d="M2510 8530 c-10 -6 -16 -64 -23 -220 -12 -236 -13 -230 57 -230 30 0 45 7 73 35 34 34 35 37 31 100 -3 44 -10 70 -23 85 -21 23 -17 43 33 149 24 52 24 55 6 68 -24 18 -32 8 -75 -90 -18 -43 -37 -81 -43 -84 -6 -4 -7 31 -3 90 5 98 -1 117 -33 97z m70 -260 c14 -14 20 -33 20 -63 0 -48 -13 -67 -47 -67 -22 0 -23 4 -23 68 0 88 11 101 50 62z"/>
 <path d="M1502 8514 c-20 -14 -23 -23 -20 -72 3 -49 6 -57 23 -57 16 0 21 8 23 40 4 44 14 55 44 47 33 -8 49 -45 46 -103 -3 -56 -7 -60 -74 -78 -28 -7 -44 -19 -52 -36 -15 -33 -16 -156 -1 -188 27 -59 127 -61 159 -3 6 12 10 40 8 62 -2 32 -7 40 -25 42 -21 3 -23 -1 -23 -37 0 -30 -5 -43 -19 -51 -41 -21 -61 7 -61 87 0 49 20 73 60 73 59 0 96 67 84 155 -9 68 -25 95 -65 116 -46 23 -77 24 -107 3z"/>
 <path d="M1766 8507 c-26 -39 -38 -125 -34 -236 5 -119 17 -154 60 -172 40 -16 72 2 94 55 23 56 23 280 -1 325 -28 54 -92 69 -119 28z m73 -68 c14 -40 14 -219 1 -253 -13 -34 -38 -33 -47 2 -10 35 -10 219 0 255 10 36 32 34 46 -4z"/>
 <path d="M1977 8524 c-4 -4 -7 -104 -7 -221 l0 -214 26 3 c23 3 29 11 48 78 12 41 38 103 57 138 l34 62 3 -140 3 -140 27 0 27 0 0 213 0 212 -25 3 c-23 3 -30 -7 -80 -108 -30 -62 -58 -114 -61 -116 -4 -2 -6 49 -5 114 1 111 0 117 -19 120 -12 2 -24 0 -28 -4z"/>
 <path d="M2292 8517 c-37 -44 -56 -279 -29 -356 16 -45 57 -76 90 -67 14 3 36 22 49 43 21 35 23 49 22 173 0 143 -12 187 -53 210 -27 14 -66 13 -79 -3z m70 -82 c16 -62 20 -179 6 -225 -21 -67 -44 -65 -58 7 -12 58 -9 201 5 236 11 27 37 16 47 -18z"/>
 <path d="M2730 8336 c0 -216 0 -217 68 -236 55 -15 108 -12 123 6 16 19 26 259 14 349 -6 50 -9 55 -31 55 -23 0 -24 -2 -24 -79 l0 -78 -37 -7 c-66 -10 -63 -14 -63 89 0 95 0 95 -25 95 l-25 0 0 -194z m160 -111 c0 -76 -14 -91 -74 -74 l-36 10 0 64 0 65 55 0 55 0 0 -65z"/>
 <path d="M3680 8505 c0 -15 10 -65 22 -110 l22 -83 -28 -107 c-23 -89 -26 -109 -15 -116 8 -5 17 -9 20 -9 9 0 34 65 44 110 12 58 16 56 47 -24 23 -58 34 -76 49 -76 26 0 25 8 -17 126 l-36 102 37 92 c30 74 34 94 24 101 -26 16 -37 9 -54 -33 -41 -102 -36 -100 -54 -23 -14 59 -20 71 -39 73 -18 3 -22 -1 -22 -23z"/>
 <path d="M3337 8303 c-23 -293 -24 -285 11 -281 22 2 33 15 63 71 20 38 39 69 43 70 4 1 26 -29 50 -68 32 -53 48 -70 65 -70 l23 0 1 242 c2 240 0 253 -29 253 -16 0 -33 -177 -34 -350 0 -3 -15 17 -32 44 -18 27 -38 51 -45 53 -6 3 -22 -14 -35 -36 -22 -39 -46 -57 -34 -26 3 9 9 83 12 165 l7 150 -24 0 -25 0 -17 -217z"/>
 <path d="M1187 7763 c-3 -5 -8 -112 -12 -239 -7 -208 -6 -234 10 -257 21 -33 92 -57 167 -57 49 0 60 3 73 23 19 30 28 212 18 377 l-8 125 -32 3 -33 3 0 -105 0 -106 -63 0 -62 0 3 111 c3 86 1 114 -10 120 -16 11 -45 12 -51 2z m195 -353 c3 -58 -4 -115 -15 -127 -12 -11 -79 -4 -103 12 -23 15 -25 21 -22 88 l3 72 45 6 c94 12 88 16 92 -51z"/>
 <path d="M1535 7758 c-3 -7 -4 -130 -3 -273 l3 -260 35 0 35 0 3 108 3 107 43 0 43 0 8 -110 c6 -92 9 -110 24 -115 10 -3 25 -3 34 1 15 5 17 33 18 217 1 117 2 235 3 262 l1 50 -35 0 -35 0 -9 -118 -9 -118 -41 3 -41 3 -5 125 -5 125 -33 3 c-20 2 -34 -2 -37 -10z"/>
 <path d="M2166 7755 c-3 -9 -6 -119 -6 -244 0 -185 3 -230 15 -248 21 -31 102 -55 171 -51 83 4 84 5 84 278 0 124 -4 230 -8 237 -7 11 -25 16 -53 14 -14 -1 -16 -16 -15 -103 l1 -103 -62 -3 -62 -4 -3 119 -3 118 -26 3 c-17 2 -29 -3 -33 -13z m202 -350 c5 -87 -4 -123 -31 -127 -32 -5 -89 8 -98 24 -5 7 -9 45 -9 85 l0 72 48 4 c89 7 87 9 90 -58z"/>
 <path d="M2537 7763 c-8 -13 -29 -541 -22 -553 3 -5 35 -10 71 -10 59 0 67 3 102 34 l37 34 0 85 c0 76 -3 87 -28 120 l-27 36 45 103 c25 56 45 110 45 120 0 15 -45 37 -54 27 -2 -2 -25 -55 -51 -116 -26 -62 -52 -113 -57 -113 -7 0 -9 41 -7 118 l4 117 -27 3 c-14 2 -28 0 -31 -5z m88 -309 c38 -15 58 -101 34 -147 -16 -29 -28 -37 -61 -37 -27 0 -28 2 -28 49 0 78 11 141 26 141 7 0 20 -3 29 -6z"/>
 <path d="M2880 7757 c-46 -23 -64 -100 -65 -277 0 -207 17 -253 99 -267 31 -5 39 -1 64 25 44 47 55 99 54 264 0 123 -3 153 -20 191 -27 61 -83 88 -132 64z m68 -100 c17 -35 27 -194 18 -270 -4 -33 -16 -66 -27 -79 -18 -22 -20 -22 -33 -5 -34 43 -42 242 -15 350 12 45 37 47 57 4z"/>
 <path d="M861 7734 c-15 -19 -21 -41 -21 -75 0 -63 7 -79 36 -79 22 0 24 4 24 48 0 77 38 95 91 42 28 -28 30 -33 27 -102 -3 -81 -4 -81 -98 -109 -60 -18 -80 -58 -80 -154 0 -131 33 -185 112 -185 71 0 112 37 122 108 7 53 -6 82 -39 82 -23 0 -25 -4 -25 -41 0 -56 -14 -79 -50 -79 -39 0 -50 23 -50 108 0 79 7 90 67 99 61 9 90 29 103 69 17 52 9 194 -14 228 -27 43 -74 66 -133 66 -44 0 -55 -4 -72 -26z"/>
 <path d="M1924 7753 c-40 -8 -55 -36 -64 -129 -11 -98 -11 -322 -1 -369 5 -25 12 -31 37 -33 l31 -3 -1 214 c-1 216 4 247 38 247 38 -1 41 -14 46 -232 l5 -213 31 -3 c41 -4 44 6 44 192 0 175 -13 268 -44 301 -21 24 -79 37 -122 28z"/>
 <path d="M3697 7738 c-9 -30 -7 -386 1 -458 l7 -55 93 -3 93 -3 -3 33 c-3 33 -4 33 -60 36 l-58 3 0 60 0 61 58 -4 57 -3 3 31 c3 29 0 32 -35 37 -21 4 -51 7 -67 7 l-29 0 6 68 c4 37 7 82 7 100 l0 32 70 0 70 0 0 29 c0 17 -3 32 -7 34 -5 3 -51 8 -104 12 -95 7 -96 6 -102 -17z"/>
 <path d="M3997 7754 c-9 -9 -9 -459 -1 -503 l7 -32 91 3 91 3 0 30 c0 29 -1 30 -60 35 l-60 5 -3 59 -3 59 55 -6 c46 -5 57 -3 64 11 18 37 9 47 -55 56 l-63 10 0 97 0 98 73 3 c64 3 72 5 75 24 2 11 -3 25 -10 31 -16 13 -190 27 -201 17z"/>
 <path d="M4297 7718 c-4 -24 -7 -146 -9 -273 l-3 -230 50 -3 c28 -1 75 1 105 5 53 8 55 10 55 38 l0 30 -68 0 -67 0 0 63 0 62 60 0 60 0 0 34 0 35 -52 3 -53 3 -5 135 -5 135 -31 3 c-30 3 -32 1 -37 -40z"/>
 <path d="M3341 7742 c-11 -8 -13 -64 -10 -305 3 -193 8 -300 15 -307 6 -6 33 -13 60 -16 68 -8 122 12 152 56 20 30 23 44 20 97 -3 45 -10 71 -27 94 -20 27 -21 32 -8 47 33 38 47 83 49 159 3 98 -14 134 -73 157 -50 20 -158 31 -178 18z m154 -75 c11 -5 23 -15 27 -21 9 -13 9 -112 -1 -145 -11 -39 -50 -62 -93 -55 l-38 7 0 112 c0 82 4 115 13 118 15 6 66 -3 92 -16z m-2 -337 c46 -51 32 -138 -24 -141 -70 -4 -64 -13 -67 90 l-3 94 33 -7 c18 -3 45 -20 61 -36z"/>
 <path d="M2440 7003 c-161 -27 -299 -122 -356 -247 -26 -58 -28 -69 -35 -300 -24 -698 -29 -888 -30 -1181 0 -176 -4 -331 -8 -344 -5 -19 -24 -32 -86 -56 -44 -18 -110 -49 -147 -70 l-67 -37 -61 38 c-36 22 -64 33 -69 28 -5 -5 -1 -38 7 -73 l16 -65 -39 -30 c-21 -17 -70 -61 -109 -98 l-71 -66 -45 8 c-92 18 -98 11 -48 -51 27 -33 30 -43 20 -57 -6 -9 -35 -56 -64 -104 l-53 -88 -67 0 c-38 0 -68 -4 -68 -9 0 -10 49 -54 77 -70 15 -8 13 -18 -15 -102 -17 -52 -38 -120 -47 -151 l-16 -58 -64 0 c-82 0 -85 -16 -15 -66 27 -20 50 -41 50 -48 0 -37 -32 -224 -41 -242 -7 -14 -29 -27 -62 -35 -28 -8 -52 -19 -54 -25 -2 -6 21 -21 52 -34 l55 -22 0 -57 c0 -31 -3 -79 -6 -106 l-6 -50 -69 -30 c-38 -17 -67 -34 -66 -39 2 -6 32 -19 68 -31 l64 -22 3 -89 c4 -126 2 -130 -72 -164 -35 -15 -67 -33 -70 -39 -8 -12 -6 -13 76 -36 l57 -16 6 -53 c9 -68 0 -107 -31 -143 -14 -15 -31 -39 -39 -53 l-13 -25 67 9 c66 9 69 9 113 -22 25 -17 64 -38 87 -48 35 -14 42 -22 51 -58 19 -71 26 -90 36 -93 6 -2 25 24 44 57 29 51 40 62 79 76 25 9 63 23 83 31 35 15 40 14 104 -11 36 -15 68 -25 71 -23 2 3 -10 36 -27 73 -28 61 -31 76 -25 129 12 124 10 120 76 140 79 24 77 36 -12 69 -40 14 -48 22 -53 49 -7 39 9 217 21 227 4 4 32 15 60 25 64 20 73 32 36 46 -15 6 -43 17 -61 26 l-34 16 7 61 c3 34 13 91 21 128 l15 66 70 12 c74 13 89 29 41 49 -15 6 -40 22 -56 34 l-29 24 22 74 c43 141 153 323 259 427 69 67 72 63 72 -97 l0 -139 -27 -6 c-75 -18 -133 -40 -130 -50 2 -6 22 -14 44 -18 22 -3 59 -12 82 -18 l41 -11 0 -99 c0 -73 -3 -100 -12 -100 -23 0 -178 -45 -178 -52 0 -3 36 -14 80 -24 44 -9 88 -23 97 -30 21 -14 35 -150 18 -163 -5 -5 -45 -19 -88 -31 -43 -13 -80 -27 -83 -31 -5 -8 29 -19 126 -41 l55 -13 3 -91 3 -92 -63 -21 c-34 -12 -72 -21 -85 -21 -13 0 -23 -4 -23 -10 0 -14 29 -26 95 -40 94 -19 95 -20 95 -100 0 -68 -1 -70 -31 -86 -17 -9 -53 -22 -80 -30 -84 -25 -74 -54 18 -54 90 0 99 -9 107 -102 4 -44 4 -83 1 -87 -4 -3 -43 -20 -88 -37 -44 -17 -82 -35 -84 -41 -2 -6 22 -13 54 -17 106 -12 130 -22 137 -57 3 -17 6 -49 6 -71 0 -43 -3 -45 -139 -93 -35 -12 -59 -25 -55 -28 5 -3 47 -11 93 -17 103 -16 121 -30 121 -99 0 -57 -5 -62 -97 -101 -37 -16 -69 -33 -71 -38 -2 -8 121 -32 167 -32 14 0 24 -13 35 -46 l16 -47 -29 -32 c-43 -49 -93 -124 -89 -135 2 -5 37 6 78 24 107 48 111 48 143 23 l27 -23 -15 -104 c-8 -57 -12 -106 -9 -109 2 -2 10 3 17 11 96 124 121 147 146 142 37 -9 41 -14 51 -82 19 -112 40 -140 55 -69 14 63 47 137 65 147 29 15 44 4 100 -76 29 -41 57 -74 62 -74 12 0 10 80 -3 141 -10 47 -9 54 7 66 27 20 56 16 126 -17 59 -28 98 -38 98 -24 0 3 -25 35 -55 70 -60 71 -60 70 -44 111 20 54 46 71 118 78 113 11 113 25 -3 64 l-51 18 -3 72 c-3 84 -2 85 117 97 39 3 71 10 71 14 0 8 -62 36 -132 61 l-38 13 0 81 c0 50 5 88 13 97 7 11 39 20 85 27 107 14 107 13 -23 64 l-60 24 1 65 c1 36 7 75 13 86 11 20 19 22 134 37 28 4 47 11 45 17 -2 6 -38 22 -78 36 -41 13 -81 29 -87 34 -14 11 -8 145 7 161 3 4 35 12 71 17 88 14 109 19 109 28 0 4 -41 23 -90 42 -50 18 -92 36 -94 39 -4 8 10 150 16 156 2 2 38 9 78 15 41 6 79 15 84 20 10 10 -39 33 -121 60 l-43 13 0 72 c0 90 13 105 91 106 62 1 99 10 102 24 1 5 -35 23 -80 40 -46 17 -87 35 -91 40 -4 6 -5 50 -2 100 l5 89 74 13 c122 20 125 26 36 58 -27 9 -65 24 -82 32 l-33 15 0 78 c0 56 4 81 15 90 11 9 109 28 158 30 5 0 7 5 5 11 -2 6 -40 26 -83 43 l-80 33 3 79 c2 43 5 81 7 82 2 2 38 8 81 13 116 15 118 21 16 58 -50 18 -94 37 -99 44 -5 7 -7 40 -5 73 l4 62 80 10 c116 15 118 28 11 61 -109 33 -108 30 -97 150 l9 103 50 -38 c119 -88 295 -293 295 -342 0 -10 -14 -40 -31 -66 -17 -26 -29 -49 -27 -51 2 -3 31 1 63 8 57 12 58 11 77 -14 29 -39 98 -191 98 -217 0 -14 -16 -39 -40 -63 -22 -22 -40 -44 -40 -49 0 -6 26 -10 58 -10 l59 0 31 -119 c44 -164 43 -180 -13 -220 -25 -18 -45 -36 -45 -42 0 -5 18 -9 39 -9 72 0 82 -18 94 -169 l11 -134 -28 -24 c-16 -13 -41 -27 -57 -30 -42 -8 -35 -31 14 -43 85 -23 87 -26 87 -154 l0 -115 -55 -25 c-30 -14 -55 -29 -55 -35 0 -5 26 -18 58 -28 l57 -20 3 -124 3 -125 -53 -24 c-29 -14 -53 -29 -53 -35 0 -5 23 -17 50 -27 l50 -16 7 -59 c4 -32 12 -68 18 -81 16 -37 12 -80 -16 -133 -14 -28 -23 -54 -19 -57 3 -3 27 2 53 11 62 23 66 22 139 -16 61 -31 64 -34 84 -94 11 -35 25 -66 30 -69 14 -8 31 18 52 76 15 42 25 52 86 89 66 39 74 41 150 41 45 0 81 3 81 7 0 4 -19 26 -42 50 l-41 42 13 71 c7 39 18 74 24 79 6 5 37 16 69 25 35 10 57 22 55 29 -2 7 -32 25 -66 41 l-62 30 6 80 c4 45 9 110 13 146 l6 64 63 19 c34 10 62 22 62 26 0 4 -29 21 -65 39 l-65 32 0 170 c0 191 -9 168 78 200 40 15 31 30 -33 55 -25 9 -45 22 -45 28 0 7 -7 89 -15 182 -21 240 -24 219 35 246 28 12 50 26 50 30 0 4 -27 18 -60 30 -33 12 -60 24 -60 26 0 2 -6 36 -14 76 -32 159 -58 308 -55 311 2 1 25 18 52 36 26 18 47 37 47 41 0 11 -29 19 -71 19 -51 0 -71 21 -99 104 -12 37 -46 121 -76 188 l-54 121 37 33 c20 19 41 34 45 34 4 0 8 7 8 15 0 12 -14 15 -69 15 -77 0 -81 3 -133 78 -33 49 -124 157 -214 255 -30 32 -54 64 -54 72 0 8 10 33 21 55 29 56 16 65 -50 35 -29 -14 -57 -25 -63 -25 -5 0 -37 21 -70 47 -65 50 -248 147 -393 208 -49 21 -92 39 -94 41 -2 2 -8 156 -12 341 -13 477 -25 742 -38 785 -42 137 -165 237 -338 273 -63 14 -195 18 -253 8z m43 -723 l-6 -601 34 -35 c32 -34 33 -37 16 -48 -52 -32 -49 -17 -54 -292 l-5 -259 36 -34 c27 -27 33 -38 25 -48 -6 -7 -17 -13 -24 -13 -33 0 -37 -28 -39 -270 l-2 -242 28 -20 c16 -10 33 -28 38 -39 9 -16 6 -21 -25 -36 l-35 -17 0 -270 0 -270 32 -26 c36 -30 34 -55 -7 -70 l-25 -10 0 -257 0 -257 38 -39 c35 -37 36 -40 18 -51 -54 -32 -53 -27 -50 -261 l4 -219 30 -31 c38 -39 38 -53 1 -66 -29 -10 -29 -11 -33 -102 -1 -51 -1 -176 2 -279 l5 -187 34 -29 35 -29 -32 -19 -32 -18 0 -145 c0 -79 -3 -142 -6 -138 -3 3 -12 97 -19 209 -8 112 -21 307 -29 433 -39 596 -60 1512 -52 2265 3 327 9 633 11 680 3 47 10 234 15 415 6 182 19 483 30 670 11 187 22 387 25 445 7 124 15 210 20 210 2 0 1 -270 -2 -600z m181 90 c46 -825 53 -1026 62 -1980 7 -799 -8 -1492 -46 -2110 -22 -346 -33 -530 -39 -620 -5 -78 -8 -89 -15 -62 -4 18 -5 136 -1 261 8 239 5 263 -35 276 -27 9 -25 22 9 54 l28 27 8 256 7 256 -41 21 c-23 12 -41 24 -41 27 0 2 18 23 40 44 l40 40 -2 231 -3 232 -32 16 c-41 20 -41 37 -4 59 17 9 32 26 35 37 3 11 6 144 6 295 l0 276 -30 17 c-16 10 -30 22 -30 26 0 4 14 20 30 36 l30 29 0 263 0 262 -30 16 c-37 19 -37 28 -4 54 41 32 46 68 38 295 l-6 209 -39 15 c-22 8 -39 20 -39 27 0 6 18 26 40 44 l40 32 0 289 0 290 -32 13 c-18 8 -39 21 -46 29 -11 14 -6 21 29 49 l42 33 -7 385 c-4 213 -4 395 1 406 9 22 11 -3 37 -455z m-338 122 c-9 -130 -20 -399 -26 -597 -5 -198 -12 -391 -15 -430 -10 -153 -15 -1636 -5 -2040 15 -677 28 -1090 39 -1220 6 -66 13 -176 16 -245 3 -69 8 -153 12 -187 3 -35 2 -63 -2 -63 -9 0 -118 32 -124 37 -3 2 20 25 50 52 l54 48 -13 72 c-17 98 -23 107 -76 115 -25 4 -48 11 -51 16 -3 4 18 27 46 51 l52 43 -6 72 c-7 90 -16 108 -66 123 -22 6 -42 15 -45 20 -3 4 15 22 39 39 50 35 52 43 38 184 l-6 68 -53 17 c-30 9 -54 21 -54 27 0 6 23 27 51 46 l52 35 -7 115 c-9 146 -12 157 -44 165 -14 3 -41 13 -60 21 l-34 14 29 23 c15 14 42 32 60 40 l32 17 -6 132 c-2 73 -6 138 -8 144 -2 6 -24 16 -49 23 -53 13 -57 24 -18 48 75 46 72 38 66 222 -3 91 -7 176 -10 188 -3 14 -18 27 -49 39 -25 9 -45 23 -45 30 0 7 19 23 43 36 41 22 42 25 48 83 9 76 9 221 0 259 -4 21 -15 31 -40 40 -49 16 -48 31 3 61 l46 27 0 93 c0 51 3 113 6 137 l6 45 -56 26 c-31 14 -56 28 -56 31 0 3 25 20 55 37 l55 31 0 142 0 143 -50 23 c-27 13 -50 26 -50 30 0 4 18 15 40 25 65 29 69 38 70 155 1 58 1 115 1 127 -1 16 -12 26 -46 39 -25 9 -44 21 -42 27 1 5 23 21 47 34 25 14 48 28 51 31 4 4 9 62 13 130 l7 123 -46 20 c-25 11 -45 26 -45 33 0 8 18 21 40 30 52 21 66 51 73 161 4 50 9 120 13 156 l6 65 -46 18 c-26 10 -45 23 -43 30 3 9 65 50 91 59 8 3 18 53 43 222 15 100 14 1 -1 -233z m468 179 c3 -38 8 -75 11 -83 3 -7 28 -25 55 -40 61 -34 64 -54 10 -68 -47 -13 -57 -37 -41 -96 6 -22 11 -66 12 -99 1 -85 10 -108 47 -126 37 -19 62 -38 62 -49 0 -4 -20 -15 -45 -24 l-44 -17 5 -102 c7 -140 8 -142 56 -169 23 -13 43 -28 45 -34 2 -6 -14 -18 -35 -26 -48 -19 -52 -34 -42 -156 9 -103 18 -121 71 -144 21 -9 39 -21 39 -26 0 -6 -20 -18 -44 -27 -50 -19 -56 -32 -55 -115 1 -111 9 -131 66 -164 29 -16 49 -34 46 -39 -3 -5 -25 -17 -49 -27 l-44 -19 0 -123 0 -123 47 -35 c58 -44 65 -60 24 -60 -18 0 -40 -9 -51 -20 -18 -18 -20 -33 -20 -134 0 -63 4 -126 10 -140 5 -14 27 -37 50 -52 22 -15 40 -30 40 -35 0 -5 -18 -13 -40 -19 -22 -6 -44 -19 -50 -30 -5 -10 -10 -70 -10 -132 l0 -113 50 -35 c27 -19 50 -38 50 -42 0 -4 -21 -13 -47 -20 l-48 -14 -3 -131 c-2 -121 -1 -132 16 -137 27 -9 65 -53 57 -65 -3 -6 -16 -11 -28 -11 -41 0 -45 -12 -55 -150 l-9 -135 41 -38 c34 -31 38 -39 26 -47 -8 -5 -25 -10 -38 -10 -29 0 -29 -2 -36 -145 l-6 -120 40 -28 c22 -16 40 -32 40 -36 0 -4 -18 -13 -39 -20 -21 -6 -42 -19 -46 -29 -10 -24 -19 -195 -11 -225 3 -13 24 -36 46 -51 22 -14 40 -30 40 -35 0 -5 -17 -12 -38 -16 -61 -10 -64 -15 -74 -119 -11 -107 -8 -117 54 -154 16 -9 28 -20 28 -24 0 -4 -25 -15 -55 -24 -54 -17 -55 -18 -55 -56 0 -22 -5 -71 -11 -111 l-11 -71 41 -38 c23 -21 41 -43 41 -48 0 -5 -17 -14 -39 -20 -50 -13 -60 -27 -68 -90 -4 -35 -9 -47 -14 -38 -5 9 -4 42 1 74 15 98 44 630 61 1144 17 503 22 1834 10 2415 -11 482 -39 1145 -58 1363 -4 45 -2 72 4 72 6 0 13 -31 17 -69z m636 -1595 l0 -64 56 -42 c64 -48 170 -152 230 -225 127 -154 260 -422 333 -672 19 -66 24 -73 47 -73 25 0 25 0 8 -29 -16 -27 -16 -37 -5 -98 30 -155 42 -238 60 -428 33 -333 35 -463 16 -739 l-18 -250 31 -26 c18 -15 32 -29 32 -32 0 -3 -16 -15 -35 -27 -23 -13 -35 -28 -35 -43 0 -17 -3 -19 -12 -10 -9 9 -9 43 0 144 15 169 15 332 1 628 -12 243 -18 270 -58 270 -9 0 -23 5 -31 10 -12 9 -9 16 23 45 l39 34 -21 133 c-32 206 -86 428 -149 610 -45 128 -53 138 -118 138 -30 0 -54 4 -54 9 0 5 14 32 31 60 l32 50 -41 68 c-22 37 -65 104 -94 148 l-54 80 -73 -3 -73 -2 26 44 c14 25 26 49 26 56 0 20 -85 102 -189 183 -57 45 -99 83 -92 85 7 2 20 -3 30 -12 24 -22 31 -21 77 14 21 16 42 30 47 30 4 0 7 -29 7 -64z m-99 -302 c30 -23 89 -80 130 -126 41 -45 82 -92 93 -103 42 -46 143 -208 197 -320 51 -105 126 -312 159 -442 10 -40 12 -41 60 -48 28 -4 50 -9 50 -12 0 -2 -16 -24 -35 -47 -39 -48 -42 -72 -21 -154 12 -44 27 -185 52 -480 5 -59 8 -64 35 -74 37 -13 37 -29 -1 -50 l-30 -17 0 -341 c0 -220 -4 -340 -10 -340 -6 0 -10 38 -10 94 0 108 -12 133 -80 160 -48 19 -45 31 15 57 24 10 46 26 49 35 6 15 -1 131 -25 429 -16 206 -15 203 -60 217 -47 13 -49 30 -9 60 25 18 30 29 30 63 0 89 -80 478 -127 615 -79 233 -181 445 -270 562 -22 29 -51 69 -64 88 -13 19 -71 80 -129 135 -58 55 -107 104 -109 110 -5 12 37 -16 110 -71z m-1421 -47 c0 -2 -36 -35 -81 -72 -272 -233 -478 -599 -580 -1030 -49 -207 -73 -404 -89 -709 -13 -259 -13 -296 0 -296 5 0 28 16 50 36 l40 36 0 142 c1 77 5 186 11 241 5 55 12 134 16 176 l6 76 -32 19 c-42 25 -39 37 11 54 l43 15 23 105 c61 279 181 532 330 703 l51 57 -24 47 c-13 26 -22 50 -19 54 2 4 21 3 41 -2 66 -15 105 -11 145 17 49 34 61 24 17 -13 -135 -111 -240 -241 -316 -391 l-48 -94 35 -28 c38 -31 38 -31 -36 -49 l-40 -11 -42 -132 c-79 -251 -133 -617 -148 -1010 -3 -93 -10 -168 -15 -168 -5 0 -9 16 -9 35 0 25 -5 37 -17 41 -10 3 -26 10 -35 15 -37 19 -48 11 -48 -37 0 -25 -4 -43 -9 -40 -5 3 -12 108 -16 232 l-8 226 -31 19 c-17 10 -39 19 -48 19 -33 0 -19 19 32 45 28 14 50 31 50 38 2 59 21 281 29 325 6 32 15 88 22 126 l12 68 -44 38 -44 38 30 7 c81 18 75 10 133 176 83 238 80 225 54 252 -12 13 -22 26 -22 30 0 3 19 7 41 9 40 3 44 6 81 68 94 154 194 272 337 397 78 68 161 119 161 100z"/>
 </g>

</svg>