<!DOCTYPE svg PUBLIC "-//W3C//DTD SVG 20010904//EN" "http://www.w3.org/TR/2001/REC-SVG-20010904/DTD/svg10.dtd">
<svg version="1.0" xmlns="http://www.w3.org/2000/svg" width="960px" height="720px" viewBox="0 0 9600 7200" preserveAspectRatio="xMidYMid meet">
<g id="layer101" fill="#020304" stroke="none">
 <path d="M0 3600 l0 -3600 4800 0 4800 0 0 3600 0 3600 -4800 0 -4800 0 0 -3600z"/>
 </g>
<g id="layer102" fill="#fdfdfe" stroke="none">
 <path d="M0 3600 l0 -3600 4800 0 4800 0 0 3600 0 3600 -4800 0 -4800 0 0 -3600z m5135 3225 c764 -89 1454 -422 1987 -958 571 -574 896 -1307 937 -2109 72 -1437 -829 -2747 -2217 -3222 -359 -123 -694 -178 -1087 -178 -313 1 -545 29 -835 102 -884 223 -1652 816 -2085 1610 -396 727 -496 1594 -274 2386 282 1010 1046 1827 2044 2189 487 176 1023 239 1530 180z"/>
 <path d="M4243 5210 c-34 -14 -32 -75 7 -205 11 -35 25 -173 45 -450 17 -235 19 -379 5 -405 -6 -11 -36 -31 -68 -45 -177 -79 -286 -181 -368 -346 -20 -41 -43 -86 -50 -100 -14 -27 -35 -109 -59 -234 -10 -50 -14 -160 -15 -393 0 -297 1 -326 19 -360 51 -99 147 -127 240 -68 76 48 77 55 84 506 5 392 6 395 31 463 48 129 128 208 163 162 11 -16 13 -213 13 -1115 0 -1066 1 -1097 20 -1150 40 -112 149 -164 271 -130 46 13 107 75 125 126 10 30 13 322 15 1478 1 793 5 1451 10 1464 13 33 55 28 123 -13 32 -19 60 -35 62 -35 7 0 66 -53 106 -95 63 -65 71 -93 70 -235 -7 -695 -6 -744 13 -783 10 -21 38 -55 63 -75 44 -36 47 -37 131 -37 55 0 92 5 101 13 8 7 28 22 44 34 15 11 38 42 49 67 20 43 21 66 25 357 2 202 0 336 -8 385 -6 41 -14 99 -17 129 -2 30 -13 78 -23 105 -11 28 -21 61 -24 75 -3 14 -22 45 -43 70 -73 88 -246 250 -267 250 -5 0 -17 6 -25 14 -14 12 -46 32 -107 64 -39 21 -91 41 -149 57 -94 26 -115 36 -120 59 -2 11 -6 98 -7 192 -4 232 18 214 -252 213 -116 0 -221 -4 -233 -9z"/>
 </g>

</svg>