<!DOCTYPE svg PUBLIC "-//W3C//DTD SVG 20010904//EN" "http://www.w3.org/TR/2001/REC-SVG-20010904/DTD/svg10.dtd">
<svg version="1.0" xmlns="http://www.w3.org/2000/svg" width="621px" height="223px" viewBox="0 0 6210 2230" preserveAspectRatio="xMidYMid meet">
<g id="layer101" fill="#010306" stroke="none">
 <path d="M0 1115 l0 -1115 3105 0 3105 0 0 1115 0 1115 -3105 0 -3105 0 0 -1115z"/>
 </g>
<g id="layer102" fill="#f5f5f6" stroke="none">
 <path d="M4905 1280 c-18 -29 122 -160 203 -190 31 -12 73 -32 92 -45 35 -23 37 -23 300 -20 158 2 276 7 293 14 22 8 37 7 78 -9 27 -11 59 -20 69 -20 28 0 60 -35 60 -65 0 -16 -12 -33 -37 -52 -73 -54 -234 -227 -254 -273 -11 -25 -32 -60 -45 -78 -25 -32 -26 -32 -87 -26 -54 5 -65 3 -89 -16 -33 -26 -36 -52 -7 -81 22 -22 35 -17 41 15 4 28 54 39 89 21 40 -21 42 -30 7 -30 -50 0 -44 -22 11 -46 28 -12 51 -24 51 -28 0 -4 -46 -3 -102 2 -96 8 -103 11 -143 44 -34 28 -44 44 -48 75 -5 36 -39 88 -58 88 -5 0 -6 -29 -2 -64 5 -60 4 -66 -20 -90 -41 -41 -77 -35 -122 20 -21 26 -53 53 -71 60 -60 25 -239 13 -239 -16 0 -11 23 -17 95 -26 110 -12 131 -21 164 -71 31 -45 73 -73 109 -73 41 0 91 24 116 56 l23 29 36 -43 37 -42 105 0 c123 0 135 -5 170 -80 19 -41 26 -48 31 -33 16 40 9 106 -16 149 -22 38 -23 43 -8 46 12 2 3 15 -35 46 l-52 44 30 36 c16 20 38 58 50 84 11 26 29 49 39 53 26 8 107 97 127 139 17 34 29 43 91 66 71 27 97 96 58 156 -21 32 -77 56 -110 48 -16 -4 -36 1 -58 15 -42 25 -79 27 -118 4 -27 -16 -32 -16 -101 3 -98 26 -214 24 -288 -5 -72 -28 -105 -27 -143 5 -16 14 -56 38 -88 54 -31 16 -93 59 -136 95 -81 68 -88 72 -98 55z"/>
 <path d="M1540 1228 c-52 -27 -74 -120 -47 -195 37 -100 132 -123 156 -37 11 40 -5 104 -27 112 -11 3 -12 -6 -7 -41 8 -55 0 -87 -24 -87 -56 0 -94 154 -51 205 23 27 72 19 102 -17 23 -29 28 -31 33 -15 10 23 1 43 -27 61 -35 23 -79 28 -108 14z"/>
 <path d="M1739 1221 c-19 -15 -24 -28 -23 -65 1 -46 24 -93 50 -103 26 -10 64 7 79 37 48 93 -32 191 -106 131z m71 -30 c14 -26 13 -84 -2 -99 -17 -17 -44 3 -51 38 -13 60 28 107 53 61z"/>
 <path d="M2301 1226 c-19 -7 -37 -18 -39 -24 -5 -15 28 -28 37 -15 8 13 51 23 51 12 0 -5 -14 -16 -30 -24 -37 -19 -53 -55 -40 -89 14 -38 40 -47 78 -29 25 12 32 22 32 44 0 22 -5 29 -20 29 -15 0 -20 -7 -20 -25 0 -16 -6 -25 -16 -25 -11 0 -14 8 -12 28 2 19 13 32 40 47 39 20 48 44 26 63 -23 18 -52 20 -87 8z"/>
 <path d="M2527 1234 c-4 -4 -7 -31 -7 -61 0 -40 -4 -53 -15 -53 -19 0 -20 -26 -1 -33 7 -3 16 -27 20 -53 7 -55 29 -84 63 -84 28 0 88 54 78 70 -11 17 -28 11 -52 -17 -22 -27 -23 -28 -38 -9 -20 26 -20 82 0 90 21 8 19 24 -6 31 -18 6 -20 13 -17 62 3 52 -7 75 -25 57z"/>
 <path d="M2893 1225 c-31 -22 -38 -72 -18 -123 26 -63 90 -70 120 -12 46 90 -27 187 -102 135z m61 -31 c19 -18 21 -85 4 -102 -31 -31 -73 51 -49 97 14 25 24 26 45 5z"/>
 <path d="M3073 1228 c-36 -9 -50 -25 -36 -39 6 -6 20 -4 38 5 16 8 33 12 38 9 5 -3 1 -10 -9 -16 -58 -31 -81 -82 -51 -119 18 -23 39 -27 69 -12 28 14 44 46 33 64 -11 18 -40 6 -40 -15 0 -11 -7 -20 -15 -20 -9 0 -15 9 -15 25 0 19 9 29 37 42 42 20 50 30 42 51 -8 23 -54 35 -91 25z"/>
 <path d="M3376 1231 c-3 -5 -23 -7 -45 -4 -32 4 -41 2 -55 -18 -20 -29 -20 -68 0 -118 17 -42 35 -55 65 -46 17 6 19 1 19 -39 0 -25 5 -48 10 -51 18 -11 42 17 36 41 -4 13 -6 73 -7 133 0 100 -7 128 -23 102z m-23 -70 c16 -63 -16 -111 -43 -62 -11 22 -14 84 -3 95 15 15 37 -1 46 -33z"/>
 <path d="M3710 1229 c-44 -13 -54 -23 -46 -44 6 -16 8 -16 31 -1 31 21 95 22 95 2 0 -8 -24 -31 -54 -51 -38 -25 -58 -46 -66 -69 -29 -89 74 -163 135 -96 20 22 30 89 17 109 -15 21 -32 3 -32 -34 0 -31 -21 -65 -39 -65 -24 0 -42 28 -39 60 2 27 14 42 63 80 66 52 75 68 47 93 -24 22 -69 28 -112 16z"/>
 <path d="M3891 1223 c-43 -35 -30 -135 20 -166 25 -16 67 1 84 33 47 91 -32 192 -104 133z m69 -32 c14 -26 13 -84 -2 -99 -18 -18 -46 4 -53 42 -12 59 30 102 55 57z"/>
 <path d="M4231 1214 c-25 -31 -27 -83 -6 -123 25 -48 69 -55 106 -15 18 20 24 36 23 70 -2 83 -78 125 -123 68z m73 -26 c21 -29 20 -82 0 -99 -14 -11 -19 -10 -35 10 -21 26 -25 81 -7 99 17 17 25 15 42 -10z"/>
 <path d="M4565 1233 c-38 -4 -75 -26 -75 -45 0 -16 41 -43 73 -48 24 -4 32 -10 32 -25 0 -25 -42 -34 -51 -11 -9 23 -34 20 -34 -4 0 -11 11 -27 25 -36 21 -14 30 -14 54 -4 38 15 53 53 49 121 -3 59 -4 59 -73 52z m25 -48 c11 -13 8 -15 -19 -15 -21 0 -31 5 -31 15 0 8 8 15 19 15 10 0 24 -7 31 -15z"/>
 <path d="M1886 1154 c-8 -86 -4 -96 47 -101 38 -4 63 17 53 43 -6 15 -8 15 -25 0 -18 -17 -20 -16 -31 18 -6 20 -10 53 -8 73 2 28 -1 38 -13 41 -13 2 -17 -11 -23 -74z"/>
 <path d="M2036 1215 c-3 -9 -6 -37 -6 -62 0 -32 -5 -50 -17 -59 -17 -13 -17 -15 0 -25 10 -6 17 -22 17 -38 0 -16 6 -31 14 -34 19 -7 26 1 26 31 0 14 8 31 18 38 16 12 16 14 0 26 -12 9 -18 31 -20 72 -3 58 -19 84 -32 51z"/>
 <path d="M2124 1205 c-30 -45 2 -155 45 -155 29 0 71 39 71 65 0 27 -34 55 -67 55 -13 0 -23 5 -23 10 0 18 30 23 56 11 34 -15 50 -4 28 20 -26 29 -89 26 -110 -6z m76 -96 c0 -12 -7 -19 -20 -19 -19 0 -28 28 -14 43 11 11 34 -5 34 -24z"/>
 <path d="M2627 1223 c-4 -3 -7 -44 -7 -90 0 -75 2 -84 18 -81 14 3 17 17 20 91 2 68 0 87 -11 87 -7 0 -17 -3 -20 -7z"/>
 <path d="M2694 1217 c-3 -8 -4 -47 -2 -88 l3 -74 40 -2 c77 -3 105 31 105 128 0 42 -3 49 -20 49 -18 0 -20 -7 -20 -58 0 -33 -6 -66 -13 -76 -13 -18 -15 -17 -35 9 -16 20 -22 42 -22 76 0 37 -4 49 -15 49 -9 0 -18 -6 -21 -13z"/>
 <path d="M3446 1214 c-33 -33 -12 -150 29 -160 25 -6 70 18 79 43 10 24 -21 63 -54 70 -17 3 -30 12 -30 20 0 15 12 15 68 -2 16 -6 22 -3 22 8 0 35 -85 51 -114 21z m61 -85 c14 -14 6 -39 -12 -39 -18 0 -28 17 -21 35 6 18 18 19 33 4z"/>
 <path d="M4035 1207 c-3 -12 -5 -52 -3 -87 l3 -65 40 -2 c22 -1 48 1 58 4 26 7 47 63 47 123 0 43 -3 50 -20 50 -18 0 -20 -7 -20 -64 0 -75 -16 -98 -45 -66 -11 13 -20 41 -23 75 -5 58 -26 76 -37 32z"/>
 <path d="M4387 1224 c-4 -4 -7 -42 -7 -84 l0 -77 36 -6 c41 -7 60 -1 68 19 7 19 -23 31 -34 14 -13 -20 -24 8 -30 74 -5 55 -16 76 -33 60z"/>
 <path d="M184 1133 c3 -21 9 -77 12 -124 l7 -86 -40 -23 c-65 -36 -87 -85 -91 -208 -4 -103 3 -132 34 -132 33 0 44 30 44 125 0 96 12 145 37 145 10 0 13 -50 13 -263 0 -276 2 -287 45 -287 44 0 45 7 45 360 0 185 3 339 6 343 10 9 62 -21 74 -42 5 -11 10 -66 10 -123 0 -110 6 -128 46 -128 36 0 54 36 54 106 0 116 -15 164 -64 210 -24 22 -62 46 -85 52 -41 13 -41 13 -41 62 l0 50 -56 0 -57 0 7 -37z"/>
 <path d="M695 861 c-54 -9 -66 -18 -61 -44 3 -12 8 -39 11 -61 7 -45 15 -41 35 22 17 52 46 67 112 56 51 -8 77 -32 84 -74 8 -49 -20 -80 -111 -125 -119 -59 -157 -124 -119 -202 29 -59 73 -78 176 -78 48 0 91 5 97 10 11 11 -6 115 -19 115 -4 0 -13 -20 -19 -44 -9 -38 -15 -45 -42 -51 -47 -10 -96 3 -119 32 -44 57 -13 108 104 166 91 46 121 83 120 145 -1 49 -25 88 -70 114 -35 20 -122 30 -179 19z"/>
 <path d="M1053 859 c-61 -18 -83 -91 -43 -141 21 -27 84 -48 144 -48 33 0 36 -2 36 -29 0 -16 -9 -39 -19 -52 -17 -21 -27 -24 -86 -22 -75 1 -84 -14 -19 -34 79 -24 150 -8 175 38 6 12 10 65 10 124 -2 116 3 135 31 135 31 0 16 23 -21 33 -26 6 -37 4 -52 -9 -17 -15 -21 -15 -59 0 -45 18 -51 18 -97 5z m135 -101 l3 -58 -43 0 c-58 0 -88 22 -88 64 0 45 16 57 75 54 l50 -3 3 -57z"/>
 <path d="M1884 863 c-12 -2 -32 -15 -45 -29 -22 -23 -24 -35 -27 -145 -4 -116 -4 -119 -28 -125 -35 -9 -29 -21 14 -28 20 -3 47 -9 60 -12 22 -6 22 -6 22 123 0 152 8 173 68 173 84 0 82 2 82 -131 0 -118 0 -119 -25 -125 -36 -9 -31 -20 13 -28 20 -3 47 -9 60 -12 l22 -6 0 151 0 151 28 11 27 11 -30 14 c-41 18 -52 17 -75 -6 -19 -19 -20 -19 -62 0 -42 19 -61 22 -104 13z"/>
 <path d="M2233 855 c-36 -16 -53 -42 -53 -83 0 -61 66 -102 164 -102 33 0 36 -2 36 -29 0 -16 -9 -39 -19 -52 -17 -21 -27 -24 -86 -22 -75 1 -84 -14 -19 -34 78 -23 150 -8 174 36 5 11 10 67 10 125 0 118 4 136 32 136 31 0 16 23 -21 33 -26 6 -37 4 -52 -9 -17 -15 -21 -15 -59 0 -49 19 -65 20 -107 1z m145 -97 l3 -58 -43 0 c-58 0 -88 22 -88 64 0 45 16 57 75 54 l50 -3 3 -57z"/>
 <path d="M2914 859 c-42 -12 -91 -69 -100 -114 -10 -53 1 -124 23 -153 39 -53 70 -67 141 -67 110 0 162 52 162 162 -1 129 -103 208 -226 172z m101 -29 c34 -13 55 -65 55 -135 0 -113 -65 -175 -142 -134 -63 34 -63 210 0 260 28 21 49 24 87 9z"/>
 <path d="M3490 865 c-8 -2 -32 -6 -52 -10 l-38 -6 0 -238 0 -239 -25 -6 c-34 -9 -24 -22 22 -30 21 -4 46 -9 56 -12 15 -5 17 5 17 110 0 64 3 116 8 116 4 -1 18 -7 32 -15 32 -18 82 -19 125 -1 107 45 108 245 0 307 -29 17 -115 31 -145 24z m73 -36 c53 -15 77 -56 77 -136 0 -55 -4 -67 -29 -95 -23 -26 -37 -33 -67 -32 -74 0 -74 -1 -74 138 0 110 2 125 18 129 28 8 35 7 75 -4z"/>
 <path d="M3874 860 c-37 -12 -91 -69 -100 -106 -4 -14 -4 -50 -2 -80 7 -85 60 -142 140 -151 84 -10 148 46 148 127 l0 30 -111 0 -112 0 6 42 c3 25 15 51 31 67 22 22 37 26 108 31 l83 5 -33 18 c-40 22 -116 30 -158 17z m116 -238 c0 -96 -121 -96 -145 1 l-7 27 76 0 76 0 0 -28z"/>
 <path d="M4230 861 c-76 -25 -113 -77 -113 -160 0 -67 24 -123 66 -153 37 -26 121 -35 157 -16 35 19 70 76 70 114 l0 34 -108 0 c-60 0 -111 2 -114 6 -12 11 12 78 36 103 22 22 37 26 108 31 l83 5 -33 18 c-38 21 -116 30 -152 18z m110 -230 c0 -37 -19 -70 -45 -77 -39 -10 -73 4 -90 36 -28 55 -23 60 60 60 67 0 75 -2 75 -19z"/>
 <path d="M1340 851 c0 -5 11 -12 25 -15 l25 -6 0 -229 0 -229 -25 -6 c-34 -9 -24 -22 22 -30 21 -4 46 -9 56 -12 15 -5 17 5 17 110 0 64 2 116 4 116 2 0 20 -7 39 -15 73 -30 146 -10 166 46 6 18 11 81 11 140 0 60 4 109 8 109 5 0 17 7 28 15 17 13 11 14 -63 15 -78 0 -108 -11 -63 -23 19 -5 20 -14 20 -120 0 -101 -2 -116 -20 -132 -20 -18 -96 -25 -119 -10 -7 4 -11 55 -11 132 0 116 1 125 20 130 45 12 15 23 -60 23 -44 0 -80 -4 -80 -9z"/>
 <path d="M2530 851 c0 -5 11 -12 25 -15 l25 -6 0 -129 0 -129 -27 -10 -28 -10 25 -9 c14 -6 42 -13 63 -17 33 -6 37 -5 37 13 0 20 0 20 43 1 55 -25 90 -26 83 -2 -3 9 -8 34 -12 55 -7 40 -19 48 -29 18 -9 -30 -32 -44 -60 -37 l-25 6 0 125 c0 125 0 125 25 131 51 13 23 24 -60 24 -47 0 -85 -4 -85 -9z"/>
 <path d="M4460 852 c0 -4 10 -12 23 -17 21 -10 22 -16 25 -138 l3 -127 -28 -11 -28 -11 26 -10 c22 -7 27 -16 32 -59 12 -97 62 -150 149 -156 71 -5 80 2 66 55 -13 51 -23 53 -38 7 -12 -35 -29 -43 -65 -29 -25 10 -43 54 -47 114 l-3 55 43 3 c34 3 42 7 42 23 0 16 -7 19 -45 19 l-45 0 0 120 c0 122 0 123 45 155 18 13 11 14 -67 15 -49 0 -88 -3 -88 -8z"/>
 <path d="M5635 730 c-4 -6 -2 -17 4 -24 12 -14 -4 -36 -26 -36 -7 0 -13 -9 -13 -20 0 -16 7 -20 30 -20 34 0 70 30 70 59 0 36 -49 67 -65 41z"/>
 </g>

</svg>